%TF.GenerationSoftware,KiCad,Pcbnew,(6.0.7)*%
%TF.CreationDate,2023-01-27T12:27:14-07:00*%
%TF.ProjectId,JP_MegaDrive_DIN_Mount,4a505f4d-6567-4614-9472-6976655f4449,rev?*%
%TF.SameCoordinates,Original*%
%TF.FileFunction,Other,Comment*%
%FSLAX46Y46*%
G04 Gerber Fmt 4.6, Leading zero omitted, Abs format (unit mm)*
G04 Created by KiCad (PCBNEW (6.0.7)) date 2023-01-27 12:27:14*
%MOMM*%
%LPD*%
G01*
G04 APERTURE LIST*
%ADD10C,0.100000*%
%ADD11C,0.142240*%
G04 APERTURE END LIST*
D10*
X124269500Y-103505000D02*
X137350500Y-103505000D01*
X137350500Y-103505000D02*
X137350500Y-118364000D01*
X137350500Y-118364000D02*
X124269500Y-118364000D01*
X124269500Y-118364000D02*
X124269500Y-103505000D01*
D11*
X182294276Y-103878380D02*
X181749022Y-103878380D01*
X181749022Y-104735206D02*
X181749022Y-103099446D01*
X182527956Y-103099446D01*
X183151102Y-104735206D02*
X183151102Y-103644700D01*
X183151102Y-103956273D02*
X183228996Y-103800486D01*
X183306889Y-103722593D01*
X183462676Y-103644700D01*
X183618462Y-103644700D01*
X184397396Y-104735206D02*
X184241609Y-104657313D01*
X184163716Y-104579420D01*
X184085822Y-104423633D01*
X184085822Y-103956273D01*
X184163716Y-103800486D01*
X184241609Y-103722593D01*
X184397396Y-103644700D01*
X184631076Y-103644700D01*
X184786862Y-103722593D01*
X184864756Y-103800486D01*
X184942649Y-103956273D01*
X184942649Y-104423633D01*
X184864756Y-104579420D01*
X184786862Y-104657313D01*
X184631076Y-104735206D01*
X184397396Y-104735206D01*
X185643689Y-103644700D02*
X185643689Y-104735206D01*
X185643689Y-103800486D02*
X185721582Y-103722593D01*
X185877369Y-103644700D01*
X186111049Y-103644700D01*
X186266836Y-103722593D01*
X186344729Y-103878380D01*
X186344729Y-104735206D01*
X186889982Y-103644700D02*
X187513129Y-103644700D01*
X187123662Y-103099446D02*
X187123662Y-104501526D01*
X187201556Y-104657313D01*
X187357342Y-104735206D01*
X187513129Y-104735206D01*
M02*
